<?xml version="1.0" encoding="UTF-8" standalone="no"?><!DOCTYPE svg PUBLIC "-//W3C//DTD SVG 1.1//EN" "http://www.w3.org/Graphics/SVG/1.1/DTD/svg11.dtd"><svg width="100%" height="100%" viewBox="0 0 121 101" version="1.1" xmlns="http://www.w3.org/2000/svg" xmlns:xlink="http://www.w3.org/1999/xlink" xml:space="preserve" xmlns:serif="http://www.serif.com/" style="fill-rule:evenodd;clip-rule:evenodd;stroke-linecap:round;stroke-linejoin:round;stroke-miterlimit:1.5;"><g><g><path d="M31.096,11.539l-0,58.07l85.285,-0" style="fill:none;stroke:#fff;stroke-width:8.33px;"/><path d="M31.096,69.609l50.352,-50.353" style="fill:none;stroke:#fff;stroke-opacity:0.5;stroke-width:8.33px;"/></g><path d="M50.352,-0c27.79,-0 50.352,22.562 50.352,50.352c0,27.79 -22.562,50.352 -50.352,50.352c-27.79,0 -50.352,-22.562 -50.352,-50.352c-0,-27.79 22.562,-50.352 50.352,-50.352Zm0,8.333c23.191,0 42.019,18.828 42.019,42.019c0,23.191 -18.828,42.019 -42.019,42.019c-23.191,0 -42.019,-18.828 -42.019,-42.019c0,-23.191 18.828,-42.019 42.019,-42.019Z" style="fill:#fff;"/></g></svg>