<?xml version="1.0" encoding="UTF-8" standalone="no"?><!DOCTYPE svg PUBLIC "-//W3C//DTD SVG 1.1//EN" "http://www.w3.org/Graphics/SVG/1.1/DTD/svg11.dtd"><svg width="100%" height="100%" viewBox="0 0 74 79" version="1.1" xmlns="http://www.w3.org/2000/svg" xmlns:xlink="http://www.w3.org/1999/xlink" xml:space="preserve" xmlns:serif="http://www.serif.com/" style="fill-rule:evenodd;clip-rule:evenodd;stroke-linecap:round;stroke-linejoin:round;stroke-miterlimit:1.5;"><path d="M60.966,67.038c6.488,-6.538 10.128,-15.376 10.128,-24.586c0.03,-12.934 0.03,-30.909 0.03,-30.909c0,0 -2.816,-6.96 -8.418,-2.916c-5.001,3.61 -4.275,16.822 -4.275,22.989c-3.641,-3.236 -28.796,-27.785 -28.796,-27.785c0,0 -3.279,-2.123 -5.029,-1.797c-2.585,0.481 -4.408,2.919 -4.58,5.55c-0.092,1.41 0.572,2.909 1.518,3.959c6.572,7.291 13.704,14.063 20.822,20.822l-20.822,-20.822c-1.277,-1.054 -2.569,-2.121 -4.022,-2.916c-1.097,-0.6 -2.295,-1.198 -3.545,-1.225c-3.562,-0.075 -5.97,3.652 -4.367,6.836c0.881,1.749 2.09,3.344 3.438,4.764c7.01,7.381 14.304,14.489 21.593,21.593l-21.593,-21.593c-0.735,-0.167 -1.522,-0.345 -2.256,-0.171c-1.443,0.344 -3.082,0.625 -4.115,1.688c-2.383,2.45 -2.18,5.881 -0,8.293c6.232,6.899 12.984,13.317 19.722,19.722l-16.829,-16.918c-0.711,-0.079 -1.462,-0.162 -2.144,0.052c-1.387,0.434 -2.947,0.798 -3.946,1.854c-2.014,2.129 -1.932,5.032 0,7.073c9.509,10.044 19.427,19.695 29.34,29.34c0.676,0.668 1.361,1.345 2.152,1.871c3.986,2.651 8.268,5.167 13.275,4.43c3.396,-0.501 8.313,-4.699 12.719,-9.198Z" style="fill:none;stroke:#fff;stroke-width:4px;"/></svg>