<?xml version="1.0" encoding="UTF-8" standalone="no"?><!DOCTYPE svg PUBLIC "-//W3C//DTD SVG 1.1//EN" "http://www.w3.org/Graphics/SVG/1.1/DTD/svg11.dtd"><svg width="100%" height="100%" viewBox="0 0 101 101" version="1.1" xmlns="http://www.w3.org/2000/svg" xmlns:xlink="http://www.w3.org/1999/xlink" xml:space="preserve" xmlns:serif="http://www.serif.com/" style="fill-rule:evenodd;clip-rule:evenodd;stroke-linejoin:round;stroke-miterlimit:2;"><g><path d="M88.214,16.778c-3.232,-12.065 -15.652,-19.235 -27.717,-16.003l-43.719,11.715c-12.065,3.233 -19.235,15.652 -16.003,27.717l11.715,43.72c3.233,12.064 15.652,19.235 27.717,16.002l43.72,-11.715c12.064,-3.232 19.235,-15.652 16.002,-27.717l-11.715,-43.719Zm-7.906,2.118l11.715,43.72c2.063,7.701 -2.514,15.628 -10.215,17.692c0,-0 -43.719,11.715 -43.719,11.715c-7.701,2.063 -15.629,-2.514 -17.692,-10.215c-0,0 -11.715,-43.719 -11.715,-43.719c-2.064,-7.701 2.513,-15.629 10.214,-17.692c0,-0 43.72,-11.715 43.72,-11.715c7.701,-2.064 15.628,2.513 17.692,10.214Z" style="fill:#fb9500;"/><g><g><path d="M26.62,30.168c4.233,-1.134 8.59,1.382 9.724,5.614c1.134,4.233 -1.381,8.59 -5.614,9.724c-4.232,1.134 -8.589,-1.382 -9.723,-5.614c-1.135,-4.233 1.381,-8.59 5.613,-9.724Z" style="fill:#fb9500;"/><path d="M48.297,42.683c4.233,-1.134 8.59,1.382 9.724,5.614c1.134,4.233 -1.381,8.59 -5.614,9.724c-4.232,1.134 -8.589,-1.381 -9.724,-5.614c-1.134,-4.232 1.382,-8.589 5.614,-9.724Z" style="fill:#fb9500;"/><path d="M69.974,55.199c4.233,-1.134 8.59,1.381 9.724,5.614c1.134,4.232 -1.381,8.589 -5.614,9.723c-4.233,1.134 -8.59,-1.381 -9.724,-5.614c-1.134,-4.232 1.382,-8.589 5.614,-9.723Z" style="fill:#fb9500;"/></g><g><path d="M39.892,79.698c4.232,-1.134 6.748,-5.491 5.614,-9.724c-1.134,-4.232 -5.491,-6.748 -9.724,-5.614c-4.232,1.134 -6.748,5.491 -5.614,9.724c1.134,4.233 5.491,6.748 9.724,5.614Z" style="fill:#fb9500;"/><path d="M64.922,36.344c4.233,-1.134 6.748,-5.491 5.614,-9.724c-1.134,-4.232 -5.491,-6.748 -9.723,-5.613c-4.233,1.134 -6.748,5.491 -5.614,9.723c1.134,4.233 5.491,6.748 9.723,5.614Z" style="fill:#fb9500;"/></g></g></g></svg>