<svg width="100%" height="100%" viewBox="0 0 74 79" version="1.1" xmlns="http://www.w3.org/2000/svg" xmlns:xlink="http://www.w3.org/1999/xlink" xml:space="preserve" style="fill-rule:evenodd;clip-rule:evenodd;stroke-linecap:round;stroke-linejoin:round;stroke-miterlimit:1.5;"><path d="M12.159,67.038c-6.488,-6.538 -10.129,-15.376 -10.129,-24.586c-0.03,-12.934 -0.03,-30.909 -0.03,-30.909c-0,0 2.816,-6.96 8.418,-2.916c5.001,3.61 4.275,16.822 4.275,22.989c3.641,-3.236 28.796,-27.785 28.796,-27.785c0,0 3.279,-2.123 5.03,-1.797c2.584,0.481 4.407,2.919 4.579,5.55c0.092,1.41 -0.571,2.909 -1.518,3.959c-6.572,7.291 -13.704,14.063 -20.822,20.822l20.822,-20.822c1.277,-1.054 2.57,-2.121 4.022,-2.916c1.097,-0.6 2.295,-1.198 3.545,-1.225c3.562,-0.075 5.97,3.652 4.367,6.836c-0.881,1.749 -2.09,3.344 -3.438,4.764c-7.01,7.381 -14.303,14.489 -21.593,21.593l21.593,-21.593c0.736,-0.167 1.523,-0.345 2.256,-0.171c1.443,0.344 3.082,0.625 4.116,1.688c2.382,2.45 2.179,5.881 -0,8.293c-6.233,6.899 -12.984,13.317 -19.722,19.722l16.829,-16.918c0.71,-0.079 1.461,-0.162 2.143,0.052c1.387,0.434 2.948,0.798 3.946,1.854c2.014,2.129 1.932,5.032 0,7.073c-9.508,10.044 -19.427,19.695 -29.339,29.34c-0.677,0.668 -1.361,1.345 -2.153,1.871c-3.986,2.651 -8.268,5.167 -13.275,4.43c-3.396,-0.501 -8.312,-4.699 -12.718,-9.198Z" style="fill:none;stroke:#fff;stroke-width:4px;"/></svg>