<?xml version="1.0" encoding="UTF-8" standalone="no"?><!DOCTYPE svg PUBLIC "-//W3C//DTD SVG 1.1//EN" "http://www.w3.org/Graphics/SVG/1.1/DTD/svg11.dtd"><svg width="100%" height="100%" viewBox="0 0 7391 1013" version="1.1" xmlns="http://www.w3.org/2000/svg" xmlns:xlink="http://www.w3.org/1999/xlink" xml:space="preserve" xmlns:serif="http://www.serif.com/" style="fill-rule:evenodd;clip-rule:evenodd;stroke-linejoin:round;stroke-miterlimit:2;"><rect id="amiibo-bg" serif:id="amiibo bg" x="0" y="0" width="7390.4" height="1012.91" style="fill:none;"/><clipPath id="_clip1"><rect x="0" y="0" width="7390.4" height="1012.91"/></clipPath><g clip-path="url(#_clip1)"><g opacity="0.1"><path d="M3928.49,997.513l-0,-399.057c-0,-93.241 -24.38,-165.953 -73.14,-218.134c-48.759,-52.181 -126.603,-78.271 -233.531,-78.271c-58.169,-0 -107.784,5.132 -148.845,15.397c-41.06,10.266 -80.41,23.525 -118.049,39.778l48.76,148.844c31.65,-11.976 61.804,-21.172 90.461,-27.587c28.657,-6.416 61.805,-9.624 99.444,-9.624c48.759,0 85.542,10.693 110.35,32.079c24.807,21.385 37.211,52.608 37.211,93.669l-0,11.548c-24.808,-8.554 -50.257,-15.397 -76.347,-20.53c-26.091,-5.133 -56.672,-7.699 -91.745,-7.699c-41.06,0 -78.485,4.491 -112.275,13.473c-33.789,8.982 -62.874,22.455 -87.253,40.419c-24.38,17.964 -43.413,40.633 -57.1,68.007c-13.687,27.373 -20.53,59.88 -20.53,97.518l-0,2.567c-0,34.217 6.202,64.371 18.605,90.461c12.404,26.091 29.299,48.118 50.684,66.082c21.386,17.964 46.407,31.437 75.064,40.419c28.657,8.982 59.239,13.473 91.745,13.473c47.904,-0 88.537,-7.913 121.898,-23.738c33.362,-15.826 62.019,-36.997 85.971,-63.516l-0,0.006c-0,41.099 33.317,74.416 74.416,74.416c52.753,0 114.206,0 114.206,0Zm-184.773,-242.513c0,35.928 -13.901,65.012 -41.702,87.253c-27.801,22.241 -64.799,33.362 -110.992,33.362c-31.651,0 -57.313,-7.271 -76.988,-21.813c-19.675,-14.543 -29.512,-35.073 -29.512,-61.591l-0,-2.566c-0,-30.796 11.976,-54.32 35.927,-70.573c23.952,-16.253 56.886,-24.38 98.802,-24.38c23.952,0 46.407,2.352 67.365,7.057c20.958,4.705 39.992,10.907 57.1,18.606l0,34.645Z" style="fill:#fff;fill-rule:nonzero;"/><path d="M5092,997.513l-0,-447.816c-0,-82.976 -20.53,-145.85 -61.591,-188.622c-41.06,-42.771 -97.946,-64.157 -170.658,-64.157c-47.048,0 -88.964,9.263 -125.748,27.788c-36.783,18.526 -70.145,45.879 -100.085,82.061c-17.964,-35.326 -43.413,-62.466 -76.347,-81.419c-32.933,-18.953 -72.069,-28.43 -117.407,-28.43c-24.807,0 -47.262,3.018 -67.365,9.052c-20.102,6.035 -38.28,14.222 -54.533,24.56c-16.254,10.339 -31.01,22.185 -44.269,35.537c-13.259,13.353 -25.449,27.354 -36.569,42.003l-0,-0.004c-0,-26.075 -10.359,-51.082 -28.797,-69.52c-18.438,-18.438 -43.445,-28.796 -69.52,-28.796c-48.492,-0 -96.721,-0 -96.721,-0l0,687.763l195.038,0l-0,-382.717c-0,-46.086 10.479,-80.861 31.437,-104.325c20.958,-23.464 49.828,-35.196 86.612,-35.196c36.783,-0 65.012,11.732 84.687,35.196c19.675,23.464 29.512,58.239 29.512,104.325l0,382.717l195.038,0l-0,-382.717c-0,-46.086 10.479,-80.861 31.437,-104.325c20.958,-23.464 49.828,-35.196 86.612,-35.196c36.783,-0 65.012,11.732 84.687,35.196c19.675,23.464 29.512,58.239 29.512,104.325l0,382.717l195.038,0Z" style="fill:#fff;fill-rule:nonzero;"/><rect x="5211.04" y="309.75" width="195.038" height="687.764" style="fill:#fff;fill-rule:nonzero;"/><rect x="5530.24" y="309.75" width="195.038" height="687.764" style="fill:#fff;fill-rule:nonzero;"/><path d="M6566.73,654.915l-0,-2.567c-0,-57.313 -8.769,-107.997 -26.305,-152.052c-17.536,-44.054 -40.846,-81.266 -69.931,-111.633c-29.085,-30.368 -62.446,-53.251 -100.085,-68.648c-37.639,-15.398 -76.561,-23.097 -116.766,-23.097c-51.326,0 -93.883,10.399 -127.673,31.196c-33.789,20.798 -62.66,47.323 -86.612,79.575l0,-346.869l-195.037,0l-0,936.693l106.021,0c49.162,0.001 89.016,-39.854 89.016,-89.016c0,-0.001 0,-0.001 0,-0.001c23.097,27.159 51.54,50.924 85.329,71.294c33.79,20.37 76.775,30.555 128.956,30.555c41.061,-0 80.41,-7.699 118.049,-23.097c37.639,-15.397 70.787,-38.28 99.444,-68.648c28.656,-30.367 51.753,-67.579 69.289,-111.633c17.536,-44.055 26.305,-94.739 26.305,-152.052Zm-195.038,-0c0,29.285 -4.491,55.552 -13.473,78.803c-8.982,23.25 -21.172,43.272 -36.569,60.067c-15.398,16.794 -33.148,29.712 -53.251,38.755c-20.102,9.042 -41.702,13.563 -64.798,13.563c-23.097,-0 -44.697,-4.521 -64.799,-13.563c-20.103,-9.043 -37.639,-21.961 -52.609,-38.755c-14.97,-16.795 -26.946,-37.031 -35.928,-60.709c-8.982,-23.678 -13.473,-49.732 -13.473,-78.161l0,-2.567c0,-28.429 4.491,-54.483 13.473,-78.161c8.982,-23.678 20.958,-43.914 35.928,-60.709c14.97,-16.794 32.506,-29.712 52.609,-38.755c20.102,-9.042 41.702,-13.563 64.799,-13.563c23.096,0 44.696,4.521 64.798,13.563c20.103,9.043 37.853,21.961 53.251,38.755c15.397,16.795 27.587,37.031 36.569,60.709c8.982,23.678 13.473,49.732 13.473,78.161l0,2.567Z" style="fill:#fff;fill-rule:nonzero;"/><path d="M7390.4,654.915l0,-2.567c0,-49.614 -9.409,-96.021 -28.229,-139.221c-18.819,-43.199 -44.696,-80.837 -77.63,-112.916c-32.934,-32.079 -72.07,-57.314 -117.407,-75.705c-45.338,-18.392 -94.525,-27.588 -147.561,-27.588c-53.892,0 -103.507,9.41 -148.845,28.229c-45.338,18.82 -84.687,44.482 -118.049,76.989c-33.362,32.506 -59.452,70.359 -78.272,113.558c-18.819,43.199 -28.229,89.606 -28.229,139.221l0,2.566c0,49.615 9.41,96.022 28.229,139.221c18.82,43.199 44.696,80.838 77.63,112.916c32.934,32.079 72.07,57.314 117.408,75.706c45.338,18.391 94.525,27.587 147.561,27.587c53.892,0 103.507,-9.41 148.845,-28.229c45.337,-18.819 84.687,-44.482 118.049,-76.988c33.361,-32.507 59.452,-70.359 78.271,-113.558c18.82,-43.2 28.229,-89.607 28.229,-139.221Zm-192.471,2.566c0,25.663 -4.063,49.829 -12.19,72.497c-8.126,22.669 -19.888,42.558 -35.286,59.667c-15.398,17.108 -34.003,30.581 -55.817,40.419c-21.813,9.837 -46.834,14.756 -75.063,14.756c-27.374,-0 -51.968,-5.133 -73.781,-15.398c-21.814,-10.265 -40.847,-24.166 -57.1,-41.702c-16.253,-17.536 -28.657,-37.639 -37.211,-60.308c-8.554,-22.669 -12.831,-46.835 -12.831,-72.497l-0,-2.567c-0,-25.662 4.063,-49.828 12.189,-72.497c8.127,-22.669 19.889,-42.558 35.287,-59.666c15.397,-17.109 34.003,-30.582 55.816,-40.419c21.814,-9.838 46.835,-14.756 75.064,-14.756c26.518,-0 50.898,5.132 73.139,15.397c22.241,10.266 41.489,24.166 57.742,41.702c16.253,17.537 28.657,37.639 37.211,60.308c8.554,22.669 12.831,46.835 12.831,72.498l0,2.566Z" style="fill:#fff;fill-rule:nonzero;"/><g><circle cx="5308.56" cy="117.311" r="117.311" style="fill:#fff;"/><circle cx="5627.76" cy="117.311" r="117.311" style="fill:#fff;"/></g></g></g></svg>