<?xml version="1.0" encoding="UTF-8" standalone="no"?><!DOCTYPE svg PUBLIC "-//W3C//DTD SVG 1.1//EN" "http://www.w3.org/Graphics/SVG/1.1/DTD/svg11.dtd"><svg width="100%" height="100%" viewBox="0 0 2621 649" version="1.1" xmlns="http://www.w3.org/2000/svg" xmlns:xlink="http://www.w3.org/1999/xlink" xml:space="preserve" xmlns:serif="http://www.serif.com/" style="fill-rule:evenodd;clip-rule:evenodd;stroke-linejoin:round;stroke-miterlimit:2;"><g opacity="0.1"><path d="M404.857,638.409l-0,-255.397c-0,-59.675 -15.603,-106.21 -46.809,-139.606c-31.206,-33.396 -81.026,-50.094 -149.46,-50.094c-37.229,0 -68.982,3.285 -95.261,9.855c-26.279,6.57 -51.462,15.055 -75.551,25.457l31.206,95.261c20.256,-7.665 39.555,-13.55 57.895,-17.656c18.34,-4.106 39.555,-6.159 63.644,-6.159c31.206,-0 54.747,6.843 70.624,20.53c15.877,13.687 23.815,33.67 23.815,59.948l0,7.391c-15.877,-5.474 -32.164,-9.854 -48.862,-13.139c-16.698,-3.285 -36.27,-4.927 -58.716,-4.927c-26.279,-0 -50.231,2.874 -71.856,8.622c-21.626,5.749 -40.24,14.372 -55.843,25.869c-15.603,11.497 -27.784,26.005 -36.544,43.524c-8.759,17.519 -13.139,38.323 -13.139,62.412l0,1.642c0,21.899 3.969,41.198 11.908,57.896c7.938,16.697 18.751,30.795 32.437,42.292c13.687,11.497 29.701,20.12 48.041,25.868c18.341,5.748 37.913,8.623 58.717,8.623c30.658,-0 56.663,-5.064 78.015,-15.193c21.351,-10.128 39.692,-23.678 55.021,-40.65l-0,0.004c-0,26.303 21.323,47.627 47.627,47.627c33.761,-0 73.091,-0 73.091,-0Zm-118.254,-155.209c-0,22.994 -8.897,41.608 -26.69,55.842c-17.793,14.234 -41.471,21.352 -71.035,21.352c-20.256,-0 -36.68,-4.654 -49.272,-13.961c-12.592,-9.307 -18.888,-22.446 -18.888,-39.418l-0,-1.642c-0,-19.71 7.665,-34.765 22.994,-45.167c15.329,-10.402 36.407,-15.603 63.233,-15.603c15.329,-0 29.701,1.505 43.114,4.517c13.413,3.011 25.594,6.98 36.544,11.907l-0,22.173Z" style="fill:#fff;fill-rule:nonzero;"/><path d="M1149.51,638.409l0,-286.603c0,-53.105 -13.139,-93.344 -39.418,-120.718c-26.278,-27.374 -62.685,-41.06 -109.221,-41.06c-30.111,-0 -56.937,5.928 -80.478,17.784c-23.542,11.856 -44.893,29.362 -64.055,52.519c-11.497,-22.609 -27.784,-39.978 -48.862,-52.108c-21.078,-12.13 -46.124,-18.195 -75.141,-18.195c-15.876,-0 -30.247,1.931 -43.113,5.793c-12.866,3.862 -24.5,9.102 -34.902,15.718c-10.402,6.617 -19.846,14.198 -28.331,22.744c-8.486,8.546 -16.288,17.506 -23.405,26.882l0,-0.003c0,-16.688 -6.629,-32.692 -18.429,-44.493c-11.801,-11.8 -27.805,-18.429 -44.494,-18.429c-31.034,-0 -61.901,-0 -61.901,-0l0,440.169l124.824,-0l0,-244.939c0,-29.495 6.707,-51.752 20.12,-66.769c13.413,-15.017 31.89,-22.525 55.432,-22.525c23.541,-0 41.608,7.508 54.199,22.525c12.592,15.017 18.888,37.274 18.888,66.769l0,244.939l124.824,-0l0,-244.939c0,-29.495 6.707,-51.752 20.12,-66.769c13.413,-15.017 31.89,-22.525 55.432,-22.525c23.541,-0 41.608,7.508 54.2,22.525c12.592,15.017 18.887,37.274 18.887,66.769l0,244.939l124.824,-0Z" style="fill:#fff;fill-rule:nonzero;"/><rect x="1225.69" y="198.24" width="124.824" height="440.169" style="fill:#fff;fill-rule:nonzero;"/><rect x="1429.98" y="198.24" width="124.824" height="440.169" style="fill:#fff;fill-rule:nonzero;"/><path d="M2093.33,419.145l0,-1.642c0,-36.681 -5.611,-69.119 -16.835,-97.314c-11.223,-28.194 -26.141,-52.01 -44.756,-71.445c-18.614,-19.435 -39.965,-34.08 -64.054,-43.935c-24.089,-9.854 -48.999,-14.781 -74.73,-14.781c-32.849,-0 -60.085,6.655 -81.711,19.965c-21.625,13.311 -40.102,30.287 -55.431,50.928l-0,-221.996l-124.824,-0l-0,599.484l67.853,-0c31.464,-0 56.971,-25.507 56.971,-56.971c-0,-0.001 -0,-0.001 -0,-0.001c14.781,17.382 32.985,32.592 54.61,45.629c21.625,13.036 49.136,19.555 82.532,19.555c26.279,-0 51.462,-4.928 75.551,-14.782c24.089,-9.855 45.304,-24.5 63.644,-43.935c18.34,-19.435 33.122,-43.25 44.345,-71.445c11.224,-28.195 16.835,-60.633 16.835,-97.314Zm-124.824,0c0,18.743 -2.874,35.554 -8.623,50.434c-5.748,14.88 -13.549,27.695 -23.404,38.443c-9.855,10.749 -21.215,19.016 -34.08,24.803c-12.866,5.787 -26.69,8.681 -41.471,8.681c-14.782,-0 -28.606,-2.894 -41.472,-8.681c-12.865,-5.787 -24.088,-14.054 -33.669,-24.803c-9.581,-10.748 -17.246,-23.699 -22.994,-38.853c-5.749,-15.154 -8.623,-31.829 -8.623,-50.024l0,-1.642c0,-18.195 2.874,-34.869 8.623,-50.023c5.748,-15.154 13.413,-28.105 22.994,-38.854c9.581,-10.748 20.804,-19.016 33.669,-24.803c12.866,-5.787 26.69,-8.68 41.472,-8.68c14.781,-0 28.605,2.893 41.471,8.68c12.865,5.787 24.225,14.055 34.08,24.803c9.855,10.749 17.656,23.7 23.404,38.854c5.749,15.154 8.623,31.828 8.623,50.023l0,1.642Z" style="fill:#fff;fill-rule:nonzero;"/><path d="M2620.48,419.145l0,-1.642c0,-31.754 -6.022,-61.454 -18.066,-89.101c-12.045,-27.648 -28.606,-51.737 -49.683,-72.267c-21.078,-20.53 -46.125,-36.681 -75.141,-48.451c-29.016,-11.771 -60.496,-17.656 -94.439,-17.656c-34.491,-0 -66.245,6.022 -95.261,18.066c-29.016,12.045 -54.2,28.469 -75.551,49.273c-21.352,20.804 -38.05,45.03 -50.094,72.677c-12.044,27.647 -18.067,57.348 -18.067,89.101l0,1.643c0,31.753 6.023,61.454 18.067,89.101c12.044,27.648 28.605,51.736 49.683,72.267c21.078,20.53 46.125,36.68 75.141,48.451c29.016,11.771 60.496,17.656 94.439,17.656c34.491,0 66.245,-6.022 95.261,-18.066c29.016,-12.045 54.2,-28.469 75.551,-49.273c21.351,-20.804 38.049,-45.03 50.094,-72.677c12.044,-27.648 18.066,-57.348 18.066,-89.102Zm-123.181,1.643c-0,16.424 -2.601,31.89 -7.802,46.398c-5.201,14.508 -12.728,27.237 -22.583,38.187c-9.854,10.949 -21.762,19.572 -35.723,25.868c-13.96,6.296 -29.974,9.444 -48.04,9.444c-17.52,-0 -33.259,-3.285 -47.22,-9.855c-13.961,-6.57 -26.142,-15.466 -36.544,-26.689c-10.402,-11.224 -18.34,-24.089 -23.815,-38.597c-5.475,-14.508 -8.212,-29.974 -8.212,-46.399l-0,-1.642c-0,-16.424 2.6,-31.89 7.801,-46.398c5.201,-14.509 12.729,-27.237 22.584,-38.187c9.854,-10.949 21.762,-19.572 35.722,-25.868c13.961,-6.296 29.975,-9.444 48.041,-9.444c16.972,0 32.575,3.285 46.809,9.855c14.235,6.569 26.553,15.466 36.955,26.689c10.402,11.223 18.34,24.089 23.815,38.597c5.475,14.508 8.212,29.974 8.212,46.398l-0,1.643Z" style="fill:#fff;fill-rule:nonzero;"/><g><circle cx="1288.1" cy="75.079" r="75.079" style="fill:#fff;"/><circle cx="1492.39" cy="75.079" r="75.079" style="fill:#fff;"/></g></g></svg>