<?xml version="1.0" encoding="UTF-8" standalone="no"?><!DOCTYPE svg PUBLIC "-//W3C//DTD SVG 1.1//EN" "http://www.w3.org/Graphics/SVG/1.1/DTD/svg11.dtd"><svg width="100%" height="100%" viewBox="0 0 613 145" version="1.1" xmlns="http://www.w3.org/2000/svg" xmlns:xlink="http://www.w3.org/1999/xlink" xml:space="preserve" xmlns:serif="http://www.serif.com/" style="fill-rule:evenodd;clip-rule:evenodd;stroke-linejoin:round;stroke-miterlimit:2;"><g id="logo"><g><path d="M78.65,124.021l-0,-49.615c-0,-11.593 -3.031,-20.633 -9.094,-27.121c-6.062,-6.487 -15.74,-9.731 -29.035,-9.731c-7.232,-0 -13.4,0.638 -18.505,1.914c-5.105,1.277 -9.998,2.925 -14.677,4.946l6.062,18.506c3.935,-1.489 7.684,-2.633 11.247,-3.43c3.563,-0.798 7.684,-1.197 12.364,-1.197c6.062,0 10.635,1.33 13.72,3.989c3.084,2.658 4.626,6.54 4.626,11.646l-0,1.435c-3.084,-1.063 -6.248,-1.914 -9.492,-2.552c-3.244,-0.638 -7.046,-0.957 -11.407,-0.957c-5.105,-0 -9.758,0.558 -13.959,1.675c-4.201,1.116 -7.817,2.792 -10.848,5.025c-3.031,2.233 -5.398,5.052 -7.099,8.455c-1.702,3.404 -2.553,7.445 -2.553,12.125l0,0.319c0,4.254 0.771,8.003 2.313,11.247c1.542,3.244 3.643,5.982 6.302,8.216c2.659,2.233 5.77,3.908 9.332,5.025c3.563,1.117 7.366,1.675 11.407,1.675c5.956,0 11.008,-0.984 15.156,-2.951c4.148,-1.968 7.71,-4.6 10.688,-7.897l0,3.493c0,3.181 2.579,5.76 5.76,5.76c6.944,-0 17.692,-0 17.692,-0Zm-22.973,-30.152c0,4.467 -1.728,8.083 -5.185,10.848c-3.456,2.766 -8.056,4.148 -13.799,4.148c-3.936,0 -7.126,-0.904 -9.572,-2.712c-2.447,-1.808 -3.67,-4.36 -3.67,-7.657l0,-0.319c0,-3.829 1.489,-6.754 4.467,-8.775c2.978,-2.021 7.073,-3.031 12.284,-3.031c2.978,0 5.77,0.293 8.376,0.878c2.606,0.584 4.972,1.356 7.099,2.313l0,4.307Z" style="fill:#fb9500;fill-rule:nonzero;"/><path d="M223.31,124.021l-0,-55.677c-0,-10.317 -2.553,-18.134 -7.658,-23.451c-5.105,-5.318 -12.178,-7.977 -21.218,-7.977c-5.85,-0 -11.061,1.151 -15.634,3.455c-4.574,2.303 -8.721,5.704 -12.444,10.202c-2.233,-4.392 -5.397,-7.766 -9.492,-10.122c-4.095,-2.357 -8.96,-3.535 -14.597,-3.535c-3.085,-0 -5.876,0.375 -8.376,1.125c-2.499,0.751 -4.759,1.768 -6.78,3.054c-2.021,1.285 -3.855,2.758 -5.504,4.418c-1.648,1.66 -3.164,3.401 -4.547,5.222l0,-4.619c0,-2.017 -0.801,-3.951 -2.227,-5.377c-1.426,-1.427 -3.361,-2.228 -5.378,-2.228c-7.111,0 -16.644,0 -16.644,0l0,85.51l24.249,-0l0,-47.583c0,-5.73 1.303,-10.054 3.909,-12.971c2.606,-2.917 6.195,-4.376 10.769,-4.376c4.573,-0 8.083,1.459 10.529,4.376c2.446,2.917 3.669,7.241 3.669,12.971l-0,47.583l24.249,-0l-0,-47.583c-0,-5.73 1.303,-10.054 3.909,-12.971c2.605,-2.917 6.195,-4.376 10.768,-4.376c4.573,-0 8.083,1.459 10.529,4.376c2.446,2.917 3.669,7.241 3.669,12.971l0,47.583l24.25,-0Z" style="fill:#fb9500;fill-rule:nonzero;"/><rect x="238.109" y="38.511" width="24.249" height="85.51" style="fill:#fb9500;fill-rule:nonzero;"/><rect x="277.796" y="38.511" width="24.249" height="85.51" style="fill:#fb9500;fill-rule:nonzero;"/><path d="M406.662,81.426l0,-0.319c0,-7.126 -1.09,-13.428 -3.27,-18.905c-2.181,-5.477 -5.079,-10.104 -8.695,-13.88c-3.616,-3.775 -7.764,-6.62 -12.443,-8.535c-4.68,-1.914 -9.519,-2.871 -14.518,-2.871c-6.381,-0 -11.672,1.293 -15.874,3.878c-4.201,2.586 -7.79,5.884 -10.768,9.894l0,-43.126l-24.249,-0l-0,116.459l17.364,-0c1.826,-0 3.577,-0.725 4.868,-2.017c1.292,-1.291 2.017,-3.042 2.017,-4.868c0,-2.25 0,-4.183 0,-4.183c2.872,3.377 6.408,6.332 10.609,8.864c4.201,2.533 9.545,3.799 16.033,3.799c5.105,0 9.997,-0.957 14.677,-2.871c4.68,-1.915 8.801,-4.76 12.364,-8.535c3.563,-3.776 6.434,-8.402 8.615,-13.88c2.18,-5.477 3.27,-11.779 3.27,-18.904Zm-24.249,-0c0,3.641 -0.558,6.906 -1.675,9.797c-1.117,2.891 -2.632,5.38 -4.547,7.468c-1.914,2.088 -4.121,3.694 -6.62,4.819c-2.5,1.124 -5.185,1.686 -8.057,1.686c-2.871,0 -5.557,-0.562 -8.056,-1.686c-2.5,-1.125 -4.68,-2.731 -6.541,-4.819c-1.861,-2.088 -3.35,-4.604 -4.467,-7.548c-1.117,-2.943 -1.675,-6.183 -1.675,-9.717l-0,-0.319c-0,-3.535 0.558,-6.774 1.675,-9.718c1.117,-2.944 2.606,-5.46 4.467,-7.548c1.861,-2.088 4.041,-3.694 6.541,-4.819c2.499,-1.124 5.185,-1.686 8.056,-1.686c2.872,0 5.557,0.562 8.057,1.686c2.499,1.125 4.706,2.731 6.62,4.819c1.915,2.088 3.43,4.604 4.547,7.548c1.117,2.944 1.675,6.183 1.675,9.718l0,0.319Z" style="fill:#fb9500;fill-rule:nonzero;"/><path d="M419.39,97.447c-1.9,-4.91 -2.85,-10.144 -2.85,-15.702l0,-0.319c0,-6.169 1.17,-11.939 3.51,-17.31c2.34,-5.371 5.584,-10.077 9.732,-14.118c4.147,-4.042 9.04,-7.233 14.677,-9.572c5.636,-2.34 11.805,-3.51 18.505,-3.51c6.595,-0 12.71,1.143 18.347,3.43c5.637,2.286 10.502,5.424 14.597,9.412c4.095,3.989 7.312,8.668 9.652,14.039c2.34,5.371 3.51,11.141 3.51,17.31l-0,0.319c-0,5.588 -0.961,10.85 -2.881,15.784c-0.742,0.195 -1.517,0.509 -2.33,0.969c-5.531,-4.32 -16.706,-1.5 -22.79,-0.094c-0.655,0.151 -1.433,0.343 -2.262,0.554c0.146,-0.152 0.289,-0.306 0.43,-0.462c1.914,-2.128 3.377,-4.6 4.387,-7.419c1.01,-2.818 1.516,-5.823 1.516,-9.013l-0,-0.319c-0,-3.191 -0.532,-6.196 -1.596,-9.014c-1.063,-2.818 -2.605,-5.318 -4.626,-7.498c-2.021,-2.18 -4.414,-3.909 -7.179,-5.185c-2.765,-1.276 -5.797,-1.914 -9.094,-1.914c-3.509,-0 -6.62,0.611 -9.332,1.834c-2.712,1.223 -5.026,2.898 -6.94,5.026c-1.914,2.127 -3.377,4.599 -4.387,7.418c-1.011,2.818 -1.516,5.823 -1.516,9.014l0,0.319c0,3.19 0.532,6.195 1.596,9.013c0.895,2.372 2.129,4.518 3.701,6.438c-2.85,1.129 -5.512,3.089 -8.569,4.974c-3.382,2.085 -6.365,-5.541 -10.314,-5.976c-2.992,-0.329 -5.478,0.307 -7.494,1.572Z" style="fill:#fb9500;"/><circle cx="250.234" cy="14.585" r="14.585" style="fill:#ffc817;"/><circle cx="289.921" cy="14.585" r="14.585" style="fill:#ffc817;"/></g><g><path d="M439.056,132.398c-0.039,0.546 -0.166,1.064 -0.381,1.552c-0.215,0.488 -0.478,0.956 -0.791,1.405c-0.312,0.449 -0.654,0.879 -1.024,1.288c-0.371,0.41 -0.732,0.772 -1.084,1.084c0.117,0.507 0.127,0.888 0.029,1.142c-0.097,0.254 -0.126,0.634 -0.087,1.142c-0.586,1.561 -1.474,2.606 -2.665,3.133c-1.191,0.527 -2.313,0.42 -3.367,-0.322c-0.43,-0.313 -0.791,-0.713 -1.084,-1.201c-0.293,-0.488 -0.693,-0.79 -1.2,-0.907c0.117,-0.664 0.058,-1.328 -0.176,-1.992c-0.234,-0.663 -0.488,-1.015 -0.761,-1.054c-0.117,-0.82 -0.293,-1.698 -0.527,-2.635c-0.235,-0.937 -0.449,-1.884 -0.644,-2.84c-0.196,-0.957 -0.362,-1.894 -0.498,-2.811c-0.137,-0.918 -0.186,-1.767 -0.147,-2.548c0.039,-0.39 -0.029,-0.741 -0.205,-1.054c-0.175,-0.312 -0.302,-0.683 -0.38,-1.112c-0.156,-0.898 -0.205,-1.845 -0.147,-2.841c0.059,-0.995 0.088,-1.942 0.088,-2.84c0,-0.859 -0.049,-1.786 -0.146,-2.782c-0.098,-0.995 -0.186,-1.952 -0.264,-2.869c-0.078,-0.918 -0.117,-1.757 -0.117,-2.518c0,-0.762 0.098,-1.357 0.293,-1.787c0.234,-0.468 0.556,-0.849 0.966,-1.142c0.41,-0.292 0.791,-0.614 1.142,-0.966c0.859,0.078 1.542,0.43 2.05,1.054c0.507,0.625 0.703,1.211 0.585,1.757c0.82,0.508 1.474,1.162 1.962,1.962c0.488,0.8 0.879,1.698 1.172,2.694c0.292,0.995 0.497,2.05 0.614,3.162c0.118,1.113 0.215,2.206 0.293,3.28c0.078,1.073 0.156,2.098 0.234,3.074c0.079,0.976 0.235,1.816 0.469,2.518c1.444,-2.069 2.655,-3.914 3.631,-5.534c0.976,-1.62 1.971,-3.172 2.986,-4.655c1.016,-1.484 2.148,-2.987 3.397,-4.51c1.249,-1.522 2.87,-3.24 4.861,-5.153c0.39,0.039 0.712,0.117 0.966,0.234c0.254,0.117 0.478,0.215 0.673,0.293c0.196,0.078 0.43,0.146 0.703,0.205c0.274,0.058 0.644,0.049 1.113,-0.029c0.156,0.39 0.273,0.673 0.351,0.849c0.078,0.175 0.147,0.351 0.205,0.527c0.059,0.175 0.137,0.4 0.234,0.673c0.098,0.274 0.264,0.664 0.498,1.172c0.117,0.117 0.156,0.273 0.117,0.468c-0.039,0.195 -0.068,0.381 -0.087,0.556c-0.02,0.176 -0.03,0.303 -0.03,0.381c0,0.078 0.098,0.078 0.293,-0c-0.117,0.547 -0.322,1.044 -0.615,1.493c-0.293,0.449 -0.42,0.986 -0.38,1.611c-0.898,1.171 -1.884,2.381 -2.958,3.631c-1.073,1.249 -2.147,2.537 -3.221,3.865c-1.073,1.327 -2.098,2.723 -3.074,4.187c-0.976,1.464 -1.816,2.996 -2.518,4.597c-0.196,0 -0.342,0.059 -0.44,0.176l-0.527,0.761c-0.097,0.117 -0.224,0.176 -0.38,0.176Z" style="fill:#5a5a5a;fill-rule:nonzero;"/><path d="M461.075,138.605c0.195,1.172 0.127,2.089 -0.205,2.753c-0.332,0.663 -0.8,1.161 -1.405,1.493c-0.606,0.332 -1.299,0.517 -2.079,0.556c-0.781,0.039 -1.523,0 -2.226,-0.117c-0.39,-0.546 -0.742,-1.23 -1.054,-2.049c-0.312,-0.82 -0.605,-1.669 -0.878,-2.548c-0.274,-0.878 -0.518,-1.747 -0.732,-2.606c-0.215,-0.859 -0.401,-1.62 -0.557,-2.284c0.195,-0.468 0.322,-1.005 0.381,-1.61c0.058,-0.605 0.098,-1.22 0.117,-1.845c0.02,-0.625 0.039,-1.259 0.059,-1.903c0.019,-0.644 0.068,-1.259 0.146,-1.845c0.273,-1.64 0.673,-3.201 1.201,-4.685c0.527,-1.483 0.946,-3.026 1.259,-4.626c0.078,-0.352 0.048,-0.684 -0.088,-0.996c-0.137,-0.312 -0.166,-0.605 -0.088,-0.878c0.039,-0.156 0.156,-0.264 0.351,-0.322c0.196,-0.059 0.313,-0.186 0.352,-0.381c0.117,-0.429 0.146,-0.781 0.088,-1.054c-0.059,-0.273 0.009,-0.605 0.205,-0.996c0.195,-0.312 0.439,-0.771 0.732,-1.376c0.292,-0.605 0.4,-1.239 0.322,-1.903c0.351,-0.234 0.683,-0.508 0.995,-0.82c0.313,-0.312 0.635,-0.595 0.966,-0.849c0.332,-0.254 0.703,-0.478 1.113,-0.674c0.41,-0.195 0.908,-0.292 1.493,-0.292c0.313,0.39 0.518,0.819 0.615,1.288c0.098,0.468 0.196,0.937 0.293,1.405c0.098,0.469 0.244,0.908 0.439,1.318c0.196,0.41 0.527,0.732 0.996,0.966l-0,1.172c-0,0.468 0.019,0.927 0.059,1.376c0.039,0.449 0.126,0.859 0.263,1.23c0.137,0.37 0.361,0.614 0.674,0.732c-0.703,1.874 -1.357,3.728 -1.962,5.563c-0.605,1.835 -1.103,3.68 -1.494,5.534c-0.39,1.855 -0.634,3.719 -0.732,5.593c-0.097,1.874 0.03,3.767 0.381,5.68Z" style="fill:#5a5a5a;fill-rule:nonzero;"/><path d="M500.546,109.734c0.039,0.273 0.049,0.478 0.029,0.615c-0.019,0.137 -0.039,0.264 -0.058,0.381c-0.02,0.117 -0.03,0.244 -0.03,0.38c0,0.137 0.039,0.342 0.117,0.615c-0.819,1.328 -1.766,2.235 -2.84,2.723c-1.073,0.488 -2.235,0.84 -3.484,1.055c-1.25,0.214 -2.528,0.439 -3.836,0.673c-1.308,0.234 -2.606,0.742 -3.894,1.523c-0.508,-0.196 -0.967,-0.196 -1.377,-0c-0.41,0.195 -1.005,0.253 -1.786,0.175c-0.234,0.235 -0.527,0.401 -0.878,0.498c-0.352,0.098 -0.703,0.205 -1.054,0.322c0.156,0.352 0.224,0.713 0.205,1.084c-0.02,0.37 0.029,0.673 0.146,0.907c1.366,0.117 2.879,0.098 4.539,-0.058c1.659,-0.156 3.289,-0.254 4.889,-0.293c0.04,0.195 0.02,0.322 -0.058,0.381c-0.078,0.058 -0.098,0.166 -0.059,0.322c0.274,0.195 0.547,0.439 0.82,0.732c0.274,0.293 0.547,0.576 0.82,0.849c0.273,0.273 0.556,0.498 0.849,0.673c0.293,0.176 0.635,0.244 1.025,0.205c0.156,0.313 0.264,0.654 0.322,1.025c0.059,0.371 0.01,0.752 -0.146,1.142c-0.625,0.43 -1.25,0.869 -1.874,1.318c-0.625,0.449 -1.279,0.849 -1.962,1.2c-0.683,0.352 -1.406,0.635 -2.167,0.849c-0.761,0.215 -1.61,0.303 -2.547,0.264l-0.44,-0c-0.097,-0 -0.224,-0.059 -0.38,-0.176c-0.313,0.195 -0.752,0.254 -1.318,0.176c-0.566,-0.078 -1.005,-0.02 -1.317,0.176c-0.43,-0.196 -0.947,-0.283 -1.552,-0.264c-0.606,0.02 -1.142,-0.049 -1.611,-0.205c-0.624,0.82 -1.191,1.698 -1.698,2.635c-0.508,0.937 -0.957,1.933 -1.347,2.987c1.327,0.195 2.43,0.273 3.309,0.234c0.878,-0.039 1.708,-0.107 2.489,-0.205c0.78,-0.097 1.581,-0.195 2.401,-0.292c0.82,-0.098 1.854,-0.127 3.103,-0.088c0.781,-0.43 1.708,-0.713 2.782,-0.849c1.074,-0.137 2.06,-0.362 2.958,-0.674c0.312,0.117 0.585,0.322 0.819,0.615c0.235,0.293 0.459,0.566 0.674,0.82c0.215,0.254 0.439,0.478 0.673,0.673c0.235,0.196 0.527,0.274 0.879,0.235c0.156,0.156 0.263,0.341 0.322,0.556c0.058,0.215 0.107,0.42 0.146,0.615c0.039,0.195 0.108,0.361 0.205,0.498c0.098,0.136 0.264,0.185 0.498,0.146c-0.586,1.288 -1.259,2.274 -2.02,2.957c-0.762,0.684 -1.63,1.201 -2.606,1.552c-0.976,0.352 -2.06,0.625 -3.251,0.82c-1.19,0.195 -2.508,0.43 -3.953,0.703c-0.351,0.078 -0.644,0.068 -0.878,-0.029c-0.234,-0.098 -0.508,-0.147 -0.82,-0.147c-0.898,0.195 -1.971,0.371 -3.221,0.527c-1.249,0.156 -2.518,0.215 -3.806,0.176c-1.289,-0.039 -2.518,-0.205 -3.69,-0.498c-1.171,-0.293 -2.127,-0.81 -2.869,-1.552c-0.313,-0.273 -0.518,-0.595 -0.615,-0.966c-0.098,-0.371 -0.361,-0.654 -0.791,-0.849c-0.039,-0.508 -0.117,-1.074 -0.234,-1.698c-0.117,-0.625 -0.234,-1.279 -0.351,-1.962c-0.118,-0.683 -0.205,-1.357 -0.264,-2.021c-0.058,-0.663 -0.029,-1.268 0.088,-1.815c0.117,-0.586 0.361,-1.113 0.732,-1.581c0.371,-0.469 0.498,-0.976 0.381,-1.523c0.195,-0.039 0.312,-0.146 0.351,-0.322c0.039,-0.176 0.195,-0.244 0.468,-0.205c0.235,-0.703 0.488,-1.366 0.762,-1.991c0.273,-0.625 0.556,-1.23 0.849,-1.815c0.293,-0.586 0.586,-1.181 0.878,-1.787c0.293,-0.605 0.576,-1.278 0.85,-2.02c-0.547,-0.508 -0.947,-1.064 -1.201,-1.669c-0.254,-0.605 -0.439,-1.21 -0.556,-1.815c-0.117,-0.606 -0.215,-1.23 -0.293,-1.874c-0.078,-0.645 -0.215,-1.299 -0.41,-1.962c0.39,-0.586 0.869,-1.064 1.435,-1.435c0.566,-0.371 1.181,-0.674 1.844,-0.908c0.664,-0.234 1.386,-0.429 2.167,-0.585c0.781,-0.157 1.601,-0.332 2.46,-0.527c1.561,-0.508 2.957,-0.898 4.187,-1.172c1.23,-0.273 2.44,-0.497 3.631,-0.673c1.191,-0.176 2.43,-0.342 3.719,-0.498c1.288,-0.156 2.752,-0.39 4.392,-0.703c0.351,0.352 0.683,0.527 0.995,0.527c0.156,-0.351 0.342,-0.458 0.557,-0.322c0.214,0.137 0.302,0.03 0.263,-0.322c0.391,0.664 0.888,1.22 1.493,1.669c0.606,0.449 1.279,0.83 2.021,1.142Z" style="fill:#5a5a5a;fill-rule:nonzero;"/><path d="M532.111,143.466c-1.367,-0.625 -2.45,-1.542 -3.25,-2.752c-0.801,-1.211 -1.591,-2.558 -2.372,-4.041c-0.117,-0.234 -0.234,-0.469 -0.351,-0.703l-1.172,-2.167l-0.468,-0.937l-0.703,0.644l-1.054,0.937l-0.586,0.586c-1.015,0.937 -2.04,1.864 -3.074,2.782c-1.035,0.917 -2.128,1.737 -3.28,2.459c-1.151,0.723 -2.362,1.308 -3.631,1.757c-1.268,0.449 -2.645,0.693 -4.128,0.732l-1.289,-0.644c-0.741,-0.39 -1.366,-0.742 -1.874,-1.054c-0.507,-0.312 -1.093,-0.8 -1.756,-1.464c-0.196,-0.351 -0.362,-0.683 -0.498,-0.996c-0.137,-0.312 -0.283,-0.624 -0.439,-0.937c-0.43,-0.78 -0.781,-1.483 -1.055,-2.108c-0.273,-0.625 -0.546,-1.327 -0.819,-2.108c0.117,-0.547 0.292,-1.474 0.527,-2.782c0.234,-1.308 0.517,-2.743 0.849,-4.304c0.332,-1.562 0.683,-3.133 1.054,-4.714c0.371,-1.582 0.751,-2.958 1.142,-4.129c0.351,-1.015 0.751,-2.089 1.2,-3.221c0.449,-1.132 0.937,-2.177 1.464,-3.133c0.528,-0.957 1.103,-1.776 1.728,-2.46c0.625,-0.683 1.288,-1.083 1.991,-1.2c0.195,0.273 0.41,0.468 0.644,0.585c0.235,0.118 0.449,0.215 0.645,0.293c0.546,0.781 1.083,1.445 1.61,1.991c0.527,0.547 1.142,1.094 1.845,1.64c-0.196,0.976 -0.479,2.06 -0.849,3.25c-0.371,1.191 -0.762,2.382 -1.172,3.573c-0.41,1.19 -0.81,2.352 -1.2,3.484c-0.391,1.132 -0.703,2.108 -0.937,2.928c-0.234,0.664 -0.43,1.406 -0.586,2.226c-0.351,1.444 -0.683,3.416 -0.995,5.914c0.468,-0.117 0.976,-0.371 1.522,-0.761c0.547,-0.39 1.074,-0.8 1.581,-1.23c0.586,-0.468 1.172,-0.995 1.757,-1.581c0.742,-0.742 1.367,-1.425 1.874,-2.05c0.508,-0.624 0.986,-1.269 1.435,-1.932c0.449,-0.664 0.908,-1.396 1.376,-2.196c0.469,-0.801 1.035,-1.747 1.699,-2.841c0.585,-0.937 1.2,-1.942 1.844,-3.016c0.644,-1.073 1.289,-2.108 1.933,-3.103c0.644,-0.996 1.278,-1.904 1.903,-2.723c0.625,-0.82 1.191,-1.464 1.698,-1.933c0.313,0.39 0.713,0.761 1.201,1.113c0.488,0.351 1.005,0.624 1.552,0.82c0.234,0.351 0.459,0.673 0.673,0.966c0.215,0.293 0.42,0.556 0.615,0.79c0.234,0.352 0.459,0.684 0.674,0.996c0.214,0.312 0.419,0.625 0.615,0.937c-0.04,0.273 -0.098,0.625 -0.176,1.054c-0.078,0.43 -0.166,0.898 -0.264,1.406c-0.097,0.507 -0.205,1.024 -0.322,1.551c-0.117,0.528 -0.234,1.025 -0.351,1.494c-0.312,1.483 -0.547,2.596 -0.703,3.338c-0.156,0.742 -0.263,1.327 -0.322,1.757c-0.059,0.429 -0.098,0.79 -0.117,1.083c-0.02,0.293 -0.029,0.693 -0.029,1.201c-0.039,0.39 -0.02,0.78 0.058,1.171c0.039,0.351 0.117,0.722 0.234,1.113c0.118,0.39 0.274,0.741 0.469,1.054l2.342,-1.816c0.664,-0.507 1.299,-1.2 1.904,-2.079c0.605,-0.878 1.19,-1.893 1.757,-3.045c0.566,-1.152 1.122,-2.411 1.669,-3.777c0.546,-1.367 1.093,-2.753 1.639,-4.158c0.82,-2.069 1.65,-4.08 2.489,-6.032c0.84,-1.952 1.65,-3.455 2.431,-4.509c0.858,0.546 1.61,1.103 2.254,1.669c0.644,0.566 1.201,1.181 1.669,1.844c0.469,0.664 0.849,1.425 1.142,2.284c0.293,0.859 0.498,1.874 0.615,3.046c-0.703,1.366 -1.376,2.772 -2.02,4.216c-0.645,1.445 -1.259,2.889 -1.845,4.334c-0.781,1.874 -1.591,3.748 -2.43,5.622c-0.84,1.874 -1.767,3.66 -2.782,5.358c-1.015,1.698 -2.147,3.26 -3.397,4.685c-1.249,1.425 -2.694,2.626 -4.333,3.602c-0.43,-0.118 -0.801,-0.176 -1.113,-0.176c-0.625,-0 -1.152,0.176 -1.581,0.527Z" style="fill:#5a5a5a;fill-rule:nonzero;"/><path d="M581.303,109.734c0.039,0.273 0.049,0.478 0.029,0.615c-0.019,0.137 -0.039,0.264 -0.058,0.381c-0.02,0.117 -0.03,0.244 -0.03,0.38c0,0.137 0.04,0.342 0.118,0.615c-0.82,1.328 -1.767,2.235 -2.841,2.723c-1.073,0.488 -2.235,0.84 -3.484,1.055c-1.249,0.214 -2.528,0.439 -3.836,0.673c-1.308,0.234 -2.606,0.742 -3.894,1.523c-0.508,-0.196 -0.967,-0.196 -1.377,-0c-0.409,0.195 -1.005,0.253 -1.786,0.175c-0.234,0.235 -0.527,0.401 -0.878,0.498c-0.351,0.098 -0.703,0.205 -1.054,0.322c0.156,0.352 0.224,0.713 0.205,1.084c-0.02,0.37 0.029,0.673 0.146,0.907c1.367,0.117 2.879,0.098 4.539,-0.058c1.659,-0.156 3.289,-0.254 4.89,-0.293c0.039,0.195 0.019,0.322 -0.059,0.381c-0.078,0.058 -0.098,0.166 -0.058,0.322c0.273,0.195 0.546,0.439 0.819,0.732c0.274,0.293 0.547,0.576 0.82,0.849c0.274,0.273 0.557,0.498 0.849,0.673c0.293,0.176 0.635,0.244 1.025,0.205c0.156,0.313 0.264,0.654 0.322,1.025c0.059,0.371 0.01,0.752 -0.146,1.142c-0.625,0.43 -1.249,0.869 -1.874,1.318c-0.625,0.449 -1.279,0.849 -1.962,1.2c-0.683,0.352 -1.405,0.635 -2.167,0.849c-0.761,0.215 -1.61,0.303 -2.547,0.264l-0.439,-0c-0.098,-0 -0.225,-0.059 -0.381,-0.176c-0.312,0.195 -0.752,0.254 -1.318,0.176c-0.566,-0.078 -1.005,-0.02 -1.317,0.176c-0.43,-0.196 -0.947,-0.283 -1.552,-0.264c-0.605,0.02 -1.142,-0.049 -1.611,-0.205c-0.624,0.82 -1.19,1.698 -1.698,2.635c-0.507,0.937 -0.956,1.933 -1.347,2.987c1.328,0.195 2.43,0.273 3.309,0.234c0.878,-0.039 1.708,-0.107 2.489,-0.205c0.781,-0.097 1.581,-0.195 2.401,-0.292c0.82,-0.098 1.854,-0.127 3.104,-0.088c0.78,-0.43 1.708,-0.713 2.781,-0.849c1.074,-0.137 2.06,-0.362 2.958,-0.674c0.312,0.117 0.585,0.322 0.82,0.615c0.234,0.293 0.458,0.566 0.673,0.82c0.215,0.254 0.439,0.478 0.674,0.673c0.234,0.196 0.527,0.274 0.878,0.235c0.156,0.156 0.263,0.341 0.322,0.556c0.059,0.215 0.107,0.42 0.146,0.615c0.039,0.195 0.108,0.361 0.205,0.498c0.098,0.136 0.264,0.185 0.498,0.146c-0.585,1.288 -1.259,2.274 -2.02,2.957c-0.762,0.684 -1.63,1.201 -2.606,1.552c-0.976,0.352 -2.06,0.625 -3.25,0.82c-1.191,0.195 -2.509,0.43 -3.953,0.703c-0.352,0.078 -0.645,0.068 -0.879,-0.029c-0.234,-0.098 -0.507,-0.147 -0.82,-0.147c-0.898,0.195 -1.971,0.371 -3.221,0.527c-1.249,0.156 -2.518,0.215 -3.806,0.176c-1.288,-0.039 -2.518,-0.205 -3.69,-0.498c-1.171,-0.293 -2.127,-0.81 -2.869,-1.552c-0.312,-0.273 -0.517,-0.595 -0.615,-0.966c-0.098,-0.371 -0.361,-0.654 -0.791,-0.849c-0.039,-0.508 -0.117,-1.074 -0.234,-1.698c-0.117,-0.625 -0.234,-1.279 -0.351,-1.962c-0.117,-0.683 -0.205,-1.357 -0.264,-2.021c-0.058,-0.663 -0.029,-1.268 0.088,-1.815c0.117,-0.586 0.361,-1.113 0.732,-1.581c0.371,-0.469 0.498,-0.976 0.381,-1.523c0.195,-0.039 0.312,-0.146 0.351,-0.322c0.039,-0.176 0.195,-0.244 0.469,-0.205c0.234,-0.703 0.488,-1.366 0.761,-1.991c0.273,-0.625 0.556,-1.23 0.849,-1.815c0.293,-0.586 0.586,-1.181 0.879,-1.787c0.292,-0.605 0.575,-1.278 0.849,-2.02c-0.547,-0.508 -0.947,-1.064 -1.201,-1.669c-0.254,-0.605 -0.439,-1.21 -0.556,-1.815c-0.117,-0.606 -0.215,-1.23 -0.293,-1.874c-0.078,-0.645 -0.215,-1.299 -0.41,-1.962c0.391,-0.586 0.869,-1.064 1.435,-1.435c0.566,-0.371 1.181,-0.674 1.845,-0.908c0.663,-0.234 1.386,-0.429 2.166,-0.585c0.781,-0.157 1.601,-0.332 2.46,-0.527c1.562,-0.508 2.957,-0.898 4.187,-1.172c1.23,-0.273 2.44,-0.497 3.631,-0.673c1.191,-0.176 2.43,-0.342 3.719,-0.498c1.288,-0.156 2.752,-0.39 4.392,-0.703c0.351,0.352 0.683,0.527 0.995,0.527c0.157,-0.351 0.342,-0.458 0.557,-0.322c0.215,0.137 0.302,0.03 0.263,-0.322c0.391,0.664 0.888,1.22 1.494,1.669c0.605,0.449 1.278,0.83 2.02,1.142Z" style="fill:#5a5a5a;fill-rule:nonzero;"/><path d="M588.74,136.614c-0.429,1.562 -0.81,2.743 -1.142,3.543c-0.331,0.801 -0.829,1.63 -1.493,2.489c-0.507,-0.078 -0.859,-0.019 -1.054,0.176c-0.195,0.195 -0.41,0.371 -0.644,0.527c-0.352,0.078 -0.605,0.078 -0.761,-0c-0.157,-0.078 -0.293,-0.166 -0.41,-0.264c-0.118,-0.097 -0.264,-0.195 -0.44,-0.292c-0.175,-0.098 -0.439,-0.147 -0.79,-0.147c-0.078,-0.312 -0.166,-0.605 -0.264,-0.878c-0.097,-0.274 -0.361,-0.371 -0.79,-0.293c0.078,-0.312 0.097,-0.576 0.058,-0.791c-0.039,-0.214 -0.088,-0.41 -0.146,-0.585c-0.059,-0.176 -0.108,-0.352 -0.147,-0.527c-0.039,-0.176 -0.019,-0.401 0.059,-0.674c-0.195,0 -0.351,-0.137 -0.469,-0.41c-0.117,-0.273 -0.253,-0.546 -0.409,-0.82c0.117,-0.702 0.234,-1.366 0.351,-1.991c0.117,-0.624 0.263,-1.21 0.439,-1.757c0.176,-0.546 0.322,-1.093 0.439,-1.639c0.117,-0.547 0.059,-1.113 -0.175,-1.699c0.156,0.117 0.273,0.088 0.351,-0.088c0.078,-0.175 0.137,-0.409 0.176,-0.702c0.039,-0.293 0.058,-0.586 0.058,-0.879c0,-0.293 -0.019,-0.537 -0.058,-0.732c0.39,-1.015 0.712,-2.059 0.966,-3.133c0.254,-1.073 0.488,-2.137 0.703,-3.191c0.214,-1.055 0.439,-2.089 0.673,-3.104c0.234,-1.015 0.547,-1.952 0.937,-2.811c0.43,-0.078 0.908,-0.03 1.435,0.146c0.527,0.176 0.849,0.4 0.966,0.674c1.015,-0.781 1.913,-1.728 2.694,-2.841c0.781,-1.112 1.581,-2.196 2.401,-3.25c0.82,-1.054 1.728,-1.991 2.723,-2.811c0.996,-0.82 2.255,-1.308 3.778,-1.464c0.78,0.586 1.649,1.181 2.606,1.786c0.956,0.605 1.747,1.396 2.371,2.372c0.313,0.156 0.576,0.322 0.791,0.498c0.215,0.176 0.478,0.361 0.791,0.556l-0,0.703c0.468,0.429 0.849,0.927 1.141,1.493c0.293,0.566 0.557,1.172 0.791,1.816c0.234,0.644 0.469,1.288 0.703,1.932c0.234,0.644 0.507,1.259 0.82,1.845c-0.078,0.195 -0.117,0.361 -0.117,0.498c-0,0.136 0.029,0.283 0.087,0.439c0.059,0.156 0.108,0.312 0.147,0.468c0.039,0.157 0.039,0.371 -0,0.645c-0.117,1.717 -0.674,3.103 -1.669,4.158c-0.996,1.054 -2.196,1.922 -3.602,2.606c-1.405,0.683 -2.908,1.259 -4.509,1.727c-1.601,0.469 -3.045,0.976 -4.334,1.523c0,0.156 0.069,0.234 0.205,0.234c0.137,-0 0.186,0.098 0.147,0.293c0.937,0.585 1.678,1.054 2.225,1.405c0.547,0.352 1.064,0.644 1.552,0.879c0.488,0.234 1.015,0.439 1.581,0.615c0.566,0.175 1.357,0.38 2.372,0.615c1.015,0.234 1.806,0.419 2.372,0.556c0.566,0.137 1.083,0.254 1.552,0.351c0.468,0.098 0.946,0.176 1.434,0.234c0.488,0.059 1.181,0.127 2.079,0.205c0.352,0.352 0.654,0.772 0.908,1.26c0.254,0.488 0.42,0.976 0.498,1.464c0.078,0.488 0.097,0.956 0.058,1.405c-0.039,0.449 -0.175,0.81 -0.41,1.083c0.039,0.118 0.127,0.166 0.264,0.147c0.137,-0.02 0.283,-0.01 0.439,0.029c-0.234,0.156 -0.429,0.352 -0.585,0.586c-0.157,0.234 -0.313,0.468 -0.469,0.703c-0.156,0.234 -0.332,0.439 -0.527,0.614c-0.195,0.176 -0.469,0.283 -0.82,0.323c-1.21,0.468 -2.733,0.497 -4.568,0.087c-1.835,-0.41 -4.158,-1.161 -6.969,-2.254c-1.405,-0.547 -2.547,-1.025 -3.426,-1.435c-0.878,-0.41 -1.639,-0.82 -2.283,-1.23c-0.645,-0.41 -1.23,-0.849 -1.757,-1.317c-0.527,-0.469 -1.162,-1.035 -1.904,-1.699Zm8.375,-20.087c-0.43,0.625 -0.908,1.191 -1.435,1.699c-0.527,0.507 -1.035,1.025 -1.523,1.552c-0.488,0.527 -0.927,1.112 -1.317,1.756c-0.391,0.645 -0.664,1.396 -0.82,2.255c1.366,-0.156 2.791,-0.537 4.275,-1.142c1.484,-0.605 2.889,-1.181 4.216,-1.727c-0.156,-1.211 -0.575,-2.187 -1.259,-2.929c-0.683,-0.741 -1.395,-1.229 -2.137,-1.464Z" style="fill:#5a5a5a;fill-rule:nonzero;"/></g></g></svg>